<svg width="237" height="297" xmlns="http://www.w3.org/2000/svg" xmlns:xlink="http://www.w3.org/1999/xlink" xml:space="preserve" overflow="hidden"><g transform="translate(-521 -211)"><path d="M221.956 29.3935 221.956 59.25 15.044 59.25 15.044 29.3935 66.4248 29.3935 81.7002 14.8125 155.3 14.8125 170.575 29.3935 221.956 29.3935ZM29.625 251.581 29.625 73.831 207.375 73.831 207.375 251.581C207.375 259.45 204.367 266.394 198.349 272.412 192.331 278.43 185.388 281.438 177.519 281.438L59.4815 281.438C51.6123 281.438 44.669 278.43 38.6513 272.412 32.6337 266.394 29.625 259.45 29.625 251.581Z" fill="#FFFFFF" transform="matrix(1 0 0 1.00253 521 211)"/></g></svg>