<svg width="517" height="536" xmlns="http://www.w3.org/2000/svg" xmlns:xlink="http://www.w3.org/1999/xlink" xml:space="preserve" overflow="hidden"><g transform="translate(-420 -73)"><path d="M172.286 428.321C202.595 444.273 231.309 452.25 258.429 452.25 285.548 452.25 313.862 444.273 343.375 428.321 373.684 412.37 396.416 392.827 411.571 369.696 410.773 347.362 392.827 328.62 357.732 313.464 322.638 298.309 289.536 290.732 258.429 290.732 227.321 290.732 194.22 298.309 159.125 313.464 124.03 327.821 106.083 346.566 105.286 369.696 120.441 392.827 142.774 412.37 172.286 428.321ZM312.268 112.464C297.112 97.3095 279.166 89.7321 258.429 89.7321 237.691 89.7321 219.745 97.3095 204.589 112.464 189.434 127.619 181.857 145.566 181.857 166.304 181.857 187.042 189.434 204.987 204.589 220.143 219.745 235.298 237.691 242.875 258.429 242.875 279.166 242.875 297.112 235.298 312.268 220.143 327.423 204.987 335 187.042 335 166.304 335 145.566 327.423 127.619 312.268 112.464ZM77.7679 88.5357C128.018 38.2857 188.238 13.1607 258.429 13.1607 328.62 13.1607 388.441 38.2857 437.893 88.5357 488.143 137.988 513.268 197.809 513.268 268 513.268 338.191 488.143 398.411 437.893 448.661 388.441 498.112 328.62 522.839 258.429 522.839 188.238 522.839 128.018 498.112 77.7679 448.661 28.3155 398.411 3.58929 338.191 3.58929 268 3.58929 197.809 28.3155 137.988 77.7679 88.5357Z" fill="#FFFFFF" transform="matrix(1.00028 0 0 1 420 73)"/></g></svg>